# xmcd
#
# Track frame offsets: 
#        150
#        14210
#        26087
#        37534
#        49368
#        62253
#        75750
#        87791
#        101228
#        115456
#        129847
#        157365
#        169377
#        180747
#        193809
#        205455
#        216718
#        228315
#        241085
#        254227
#        264100
#        276612
#        288888
#        300085
#        310824
#        322611
#
# Disc length: 4478 seconds
#
# Revision: 0
# Processed by: cddbd v1.5.2PL0 Copyright (c) Steve Scherf et al.
# Submitted via: ExactAudioCopy v0.95b4
#
DISCID=71117c1a
DTITLE=Lowell Fulson - A Propoer Introduction to Lowell Fulson Juke Bo
DTITLE=x Shuffle
DYEAR=2004
DGENRE=Blues
TTITLE0=Three O'Clock Blues
TTITLE1=River Bues, Part 1
TTITLE2=River Blues, Part 2
TTITLE3=Crying Blues
TTITLE4=Crying Won't Make Me Stay
TTITLE5=Trouble Blues
TTITLE6=I Want to See My Baby
TTITLE7=Black Widow Spider Blues
TTITLE8=Don't Be So Evil
TTITLE9=Night and Day
TTITLE10=Double Trouble Blues
TTITLE11=Ain't Nobody's Business
TTITLE12=Everyday I Have the Blues
TTITLE13=Cold Hearted Woman
TTITLE14=Mama Bring Your Clothes Back Home
TTITLE15=Back Home Blues
TTITLE16=Baby Won't Jump with Me
TTITLE17=Blue Shadows
TTITLE18=Rainy Day
TTITLE19=Sinner's Prayer
TTITLE20=Let's Live Right
TTITLE21=Guitar Shuffle
TTITLE22=Upstairs
TTITLE23=Juke Box Shuffle
TTITLE24=Blues Never Fail
TTITLE25=You've Gotta Reap
EXTD=
EXTT0=
EXTT1=
EXTT2=
EXTT3=
EXTT4=
EXTT5=
EXTT6=
EXTT7=
EXTT8=
EXTT9=
EXTT10=
EXTT11=
EXTT12=
EXTT13=
EXTT14=
EXTT15=
EXTT16=
EXTT17=
EXTT18=
EXTT19=
EXTT20=
EXTT21=
EXTT22=
EXTT23=
EXTT24=
EXTT25=
PLAYORDER=
